<svg xmlns="http://www.w3.org/2000/svg" viewBox="0 0 304 182" role="img" aria-label="AWS">
  <path fill="currentColor" d="M86.4 66.4c0 3.7.4 6.7 1.1 9.1.8 2.4 1.8 4.5 3.2 6.3 1.4 1.8 3.1 3.2 5.1 4.2 2 1 4.3 1.5 6.9 1.5 3.2 0 6-1 8.4-2.9 2.4-1.9 4.4-4.5 6-7.8l-10.5-6.3c-1.1 2.2-2.2 3.8-3.3 4.8-1.1 1-2.5 1.5-4.2 1.5-2.5 0-4.5-1.1-6-3.2-1.5-2.1-2.2-5.2-2.2-9.2V40.9H86.4v25.5zM152.8 66.4c0 3.7.4 6.7 1.1 9.1.8 2.4 1.8 4.5 3.2 6.3 1.4 1.8 3.1 3.2 5.1 4.2 2 1 4.3 1.5 6.9 1.5 3.2 0 6-1 8.4-2.9 2.4-1.9 4.4-4.5 6-7.8l-10.5-6.3c-1.1 2.2-2.2 3.8-3.3 4.8-1.1 1-2.5 1.5-4.2 1.5-2.5 0-4.5-1.1-6-3.2-1.5-2.1-2.2-5.2-2.2-9.2V40.9h-9.4v25.5zM0 40.9h9.4v44.8H0V40.9zm38.2 0h9.4v6.1c1.8-2.3 4-4 6.6-5.2 2.6-1.2 5.5-1.8 8.7-1.8 4.2 0 7.8 1 10.8 3 3 2 5.3 4.8 6.9 8.4 1.6 3.6 2.4 7.8 2.4 12.6 0 4.8-.8 9-2.4 12.6-1.6 3.6-3.9 6.4-6.9 8.4-3 2-6.6 3-10.8 3-3.2 0-6.1-.6-8.7-1.8-2.6-1.2-4.8-2.9-6.6-5.2v19.9H38.2V40.9zm201.8 0h9.4v44.8h-9.4V40.9zm38.2 0c5.4 0 9.8 1.8 13.2 5.4 3.4 3.6 5.1 8.5 5.1 14.7 0 6.2-1.7 11.1-5.1 14.7-3.4 3.6-7.8 5.4-13.2 5.4h-20.1V40.9h20.1zm-10.7 8.8v27.2h10.7c2.8 0 5.1-.9 6.9-2.8 1.8-1.9 2.7-4.5 2.7-7.8 0-3.3-.9-5.9-2.7-7.8-1.8-1.9-4.1-2.8-6.9-2.8h-10.7z"/>
</svg>
