<svg xmlns="http://www.w3.org/2000/svg" viewBox="0 0 512 214" role="img" aria-label="Stripe">
  <path fill="currentColor" d="M79.3 89.5v35.1c0 8.2 6.8 14.2 16.1 14.2 9.3 0 16.1-6 16.1-14.2V89.5h22.1v35.1c0 20.1-15.8 34.3-38.2 34.3-22.4 0-38.2-14.2-38.2-34.3V89.5h22.1zm74.8 49.3V89.5h22.1v6.1c4.8-4.8 11.5-7.6 20.1-7.6 16.8 0 27.4 11.2 27.4 28.9v21.9h-22.1v-19.4c0-8.9-4.8-14.2-13.4-14.2-8.9 0-14.2 5.8-14.2 15.5v18.1h-20.1zm86.2-49.3 32.8 49.3h-24.8l-6.8-10.7c-3.4 1.5-7.6 2.3-12.5 2.3-16.1 0-27.4-11.2-27.4-28.9 0-17.7 11.3-28.9 29.1-28.9 17.4 0 28.2 10.7 28.2 28.2 0 3.4-.4 6.4-1.1 9.2h-39.5c1.5 6.8 6.4 10.5 14.2 10.5 5.6 0 10.1-2.3 12.5-6.4l13.5 21.9zm-14.2-17.4c-1.1-6.4-5.6-10.1-12.5-10.1-7.2 0-11.7 3.8-13 10.1h25.5zm63.1 17.4V89.5h22.1v6.1c4.5-4.5 10.9-7.6 18.7-7.6 14.2 0 22.4 8.9 22.4 24.4v36.4h-22.1v-33.4c0-8.2-4.1-12.9-11.7-12.9-7.9 0-12.9 5.3-12.9 14.2v32.1h-22.1z"/>
</svg>
