<?xml version="1.0" encoding="UTF-8"?>
<svg id="Layer_1" xmlns="http://www.w3.org/2000/svg" version="1.1" xmlns:xlink="http://www.w3.org/1999/xlink" viewBox="0 0 92 28">
  <!-- Generator: Adobe Illustrator 29.7.1, SVG Export Plug-In . SVG Version: 2.1.1 Build 8)  -->
  <defs>
    <style>
      .st0 {
        fill: #2dd4bf;
      }

      .st1 {
        fill: url(#linear-gradient);
      }
    </style>
    <linearGradient id="linear-gradient" x1=".97" y1="12.82" x2="12.27" y2="15.82" gradientUnits="userSpaceOnUse">
      <stop offset=".01" stop-color="#2da7bf"/>
      <stop offset=".73" stop-color="#2dd4bf"/>
    </linearGradient>
  </defs>
  <g>
    <path class="st0" d="M15.43,19.26v-9.12h1.65l-.09,3.16h.3c.11-.71.27-1.32.49-1.82.22-.5.53-.89.91-1.15.39-.26.87-.39,1.44-.39.12,0,.25,0,.39.02.14.01.3.05.47.11l-.09,2c-.18-.07-.36-.12-.54-.15-.19-.03-.36-.04-.51-.04-.47,0-.87.13-1.19.39-.33.26-.6.63-.82,1.09-.22.46-.38,1-.5,1.61v4.32h-1.91Z"/>
    <path class="st0" d="M26.52,19.48c-.88,0-1.66-.19-2.33-.56-.68-.37-1.21-.92-1.59-1.63-.38-.71-.57-1.59-.57-2.63s.2-1.95.6-2.65c.4-.7.93-1.23,1.61-1.58.67-.35,1.43-.53,2.27-.53s1.64.18,2.32.54c.68.36,1.21.9,1.61,1.61.39.71.59,1.6.59,2.67s-.2,1.93-.59,2.64c-.39.71-.93,1.24-1.61,1.59-.68.35-1.44.53-2.3.53ZM26.59,17.98c.53,0,.98-.12,1.35-.37.37-.25.66-.61.86-1.09.2-.48.3-1.05.3-1.72s-.11-1.28-.32-1.78c-.21-.5-.51-.88-.9-1.15-.39-.27-.87-.4-1.43-.4-.5,0-.94.12-1.32.36-.38.24-.67.6-.87,1.07-.2.47-.3,1.05-.3,1.73,0,1.06.23,1.89.7,2.47.47.58,1.11.88,1.93.88Z"/>
    <path class="st0" d="M34.52,19.26l-2.37-9.12h1.96l1.63,7.54h.3l1.79-7.54h2.39l1.82,7.54h.28l1.61-7.54h1.95l-2.39,9.12h-2.65l-1.74-7.53h-.23l-1.72,7.53h-2.65Z"/>
    <path class="st0" d="M47.59,19.26v-9.12h1.65l-.09,3.16h.3c.11-.71.27-1.32.49-1.82.22-.5.53-.89.91-1.15.39-.26.87-.39,1.44-.39.12,0,.25,0,.39.02.14.01.3.05.47.11l-.09,2c-.18-.07-.36-.12-.54-.15-.19-.03-.36-.04-.51-.04-.47,0-.87.13-1.19.39-.33.26-.6.63-.82,1.09-.22.46-.38,1-.5,1.61v4.32h-1.91Z"/>
    <path class="st0" d="M55.75,8.61c-.41,0-.72-.08-.93-.25-.21-.17-.32-.42-.32-.76s.11-.58.32-.75c.21-.18.52-.26.93-.26s.74.09.95.26c.21.18.32.43.32.75s-.11.59-.32.76c-.21.17-.53.25-.95.25ZM54.8,19.26v-9.12h1.89v9.12h-1.89Z"/>
    <path class="st0" d="M58.76,19.26l3.05-4.56-3.07-4.56h2.21l1.98,3.6h.26l1.95-3.6h2.23l-3.07,4.56,3.12,4.56h-2.23l-2.02-3.61h-.25l-1.96,3.61h-2.21Z"/>
    <g>
      <path class="st0" d="M74.63,19.26c-.84,0-1.59-.13-2.25-.4-.66-.27-1.21-.66-1.68-1.17-.46-.51-.82-1.13-1.06-1.87-.25-.74-.37-1.58-.37-2.53,0-1.37.23-2.5.7-3.39.47-.89,1.11-1.56,1.93-2.01.82-.44,1.75-.67,2.79-.67.81,0,1.54.13,2.19.39.65.26,1.21.65,1.68,1.16.46.51.82,1.14,1.08,1.89.26.75.39,1.62.39,2.59s-.13,1.83-.38,2.57c-.25.74-.61,1.37-1.08,1.88-.47.51-1.03.89-1.69,1.16-.66.26-1.41.39-2.25.39ZM74.69,17.47c.67,0,1.23-.16,1.68-.48.45-.32.8-.79,1.04-1.39.24-.61.36-1.35.36-2.23s-.12-1.67-.37-2.32c-.25-.64-.6-1.13-1.06-1.46-.46-.33-1.03-.5-1.69-.5-.63,0-1.18.16-1.64.48-.46.32-.82.8-1.06,1.42-.25.63-.37,1.39-.37,2.29,0,.68.07,1.28.21,1.8.14.52.34.96.61,1.31.26.35.59.62.98.81.39.19.83.28,1.32.28Z"/>
      <path class="st0" d="M86.65,19.26c-.76,0-1.44-.07-2.04-.22s-1.1-.37-1.52-.68c-.42-.31-.73-.69-.96-1.14-.22-.45-.34-.98-.35-1.59l1.96-.58c-.01.56.11,1.03.35,1.39.25.37.6.64,1.06.82.46.18.99.26,1.59.26s1.06-.07,1.45-.21c.39-.14.69-.33.89-.57.2-.24.3-.51.3-.82,0-.34-.12-.61-.37-.82-.25-.2-.58-.37-.99-.51-.42-.13-.89-.26-1.41-.38-.57-.13-1.13-.27-1.68-.42-.54-.15-1.04-.36-1.48-.61-.44-.26-.8-.59-1.06-.99-.26-.4-.39-.91-.39-1.54,0-.7.18-1.31.53-1.82s.86-.91,1.54-1.19c.67-.29,1.48-.43,2.41-.43s1.73.14,2.42.41c.69.27,1.23.68,1.61,1.2.39.53.59,1.15.61,1.86l-2.02.56c0-.39-.06-.72-.18-1.01-.12-.29-.3-.53-.54-.72s-.51-.34-.83-.43c-.32-.09-.69-.14-1.1-.14-.48,0-.9.06-1.25.19-.36.13-.63.31-.82.54-.19.23-.28.49-.28.8,0,.37.14.67.42.89.28.22.65.4,1.11.54.46.13.97.27,1.52.39.5.11,1.01.23,1.52.39.51.15.98.35,1.41.6.43.25.78.58,1.04.99.26.42.39.94.39,1.57,0,.68-.18,1.27-.54,1.79-.36.51-.91.91-1.63,1.19-.73.28-1.63.42-2.7.42Z"/>
    </g>
    <path class="st1" d="M13.78,12.37l-.86.65-.09.07c-.04.38.06.65.06.65,1.3,5.4-1.42,6.97-2.95,7.41,0,0,0,0-.01,0-3.07,1.06-6.84-1.2-8.17-3.42-1.35-2.24-2.8-7.58,2.32-10.15,2.12-.83,4.31.34,4.59,1.13,0,0-4.49-2.08-4.77,3.6-.26,5.32,7.12,7.69,8.25,3.87.2-.69.06-1.45-.45-1.96-.09-.09-.18-.16-.28-.23l-1.05.6c-.08.05-.18-.01-.19-.1l-.03-.86-.05-1.59v-.37s-.04-.74-.04-.74l-.02-.69c0-.09.09-.15.17-.12,0,0,.01,0,.02,0l3.14,1.79.39.22c.08.04.09.15.01.21Z"/>
  </g>
  <polygon class="st0" points="9.38 10.53 7.4 12.03 7.36 16.25 9.51 14.96 9.38 10.53"/>
</svg>