<?xml version="1.0" encoding="UTF-8"?>
<svg id="Layer_1" xmlns="http://www.w3.org/2000/svg" version="1.1" viewBox="0 0 32 32">
  <!-- Generator: Adobe Illustrator 29.7.1, SVG Export Plug-In . SVG Version: 2.1.1 Build 8)  -->
  <defs>
    <style>
      .st0 {
        fill: #2dd4bf;
      }

      .st1 {
        fill: #fff;
      }
    </style>
  </defs>
  <rect class="st0" x=".24" y=".15" width="31.53" height="31.71" rx="3.32" ry="3.32"/>
  <g>
    <path class="st1" d="M29.17,12.03l-1.71,1.28-.19.14c-.08.76.11,1.29.11,1.29,2.59,10.73-2.82,13.84-5.86,14.73,0,0-.02,0-.03,0-6.09,2.1-13.58-2.38-16.23-6.78C2.59,18.24-.29,7.65,9.88,2.55c4.2-1.65,8.57.67,9.12,2.25,0,0-8.91-4.12-9.47,7.15-.52,10.56,14.14,15.27,16.38,7.68.4-1.37.12-2.87-.88-3.89-.17-.17-.35-.32-.55-.45l-2.09,1.19c-.16.09-.37-.02-.37-.21l-.06-1.71-.1-3.16-.02-.73-.05-1.46-.04-1.36c0-.18.17-.3.33-.24.01,0,.02.01.04.02l6.24,3.55.78.44c.16.09.17.31.03.41Z"/>
    <polygon class="st1" points="20.42 8.38 16.5 11.34 16.42 19.74 20.7 17.16 20.42 8.38"/>
  </g>
</svg>